<?xml version="1.0" encoding="UTF-8"?>
<svg version="1.1" xmlns="http://www.w3.org/2000/svg" width="512" height="512">
<path d="M0 0 C8.34180132 4.93254339 14.68265899 11.91762108 17.24609375 21.328125 C18.26671678 32.67365541 17.3760714 42.30392425 10.24609375 51.578125 C7.14660868 55.01598181 4.16703024 56.2158733 -0.12890625 57.828125 C-3.2009502 59.03087949 -3.2009502 59.03087949 -5.75390625 61.328125 C-6.34713602 64.29540524 -6.60318982 66.58165906 -6.60546875 69.546875 C-6.62778564 70.29420898 -6.65010254 71.04154297 -6.6730957 71.81152344 C-6.72448717 73.64986972 -6.74247215 75.48909607 -6.75390625 77.328125 C-5.91087952 77.31924255 -5.06785278 77.31036011 -4.19927979 77.3012085 C3.74613568 77.2210545 11.69141533 77.16015659 19.63714218 77.12087631 C23.72213745 77.10000289 27.8067986 77.07169037 31.89160156 77.02636719 C35.8338372 76.9828997 39.77575152 76.95898605 43.71820831 76.94861603 C45.22214059 76.94122618 46.72605532 76.92679533 48.22985077 76.90520477 C50.33688834 76.87615688 52.44259904 76.87216929 54.54980469 76.87402344 C55.74893494 76.86514099 56.94806519 76.85625854 58.18353271 76.84710693 C61.86758612 77.42573907 63.04158892 78.36939468 65.24609375 81.328125 C65.70019531 84.35253906 65.70019531 84.35253906 65.63671875 87.84375 C65.61738281 89.71933594 65.61738281 89.71933594 65.59765625 91.6328125 C65.54738281 93.58574219 65.54738281 93.58574219 65.49609375 95.578125 C65.47804688 96.89554687 65.46 98.21296875 65.44140625 99.5703125 C65.39425646 102.82364808 65.32845419 106.07552125 65.24609375 109.328125 C65.82301468 109.31924255 66.39993561 109.31036011 66.99433899 109.3012085 C73.04601038 109.21211873 79.09749288 109.15213744 85.1496582 109.10839844 C87.40266498 109.08839036 89.65562054 109.06117509 91.90844727 109.02636719 C95.16305242 108.97737158 98.41696592 108.95504744 101.671875 108.9375 C103.1616259 108.90653229 103.1616259 108.90653229 104.68147278 108.87493896 C115.33352805 108.87158721 125.09619741 112.3799147 133.24609375 119.328125 C141.21585649 127.83446583 145.42934101 136.3094814 145.34375 147.9375 C145.34162758 149.02771454 145.34162758 149.02771454 145.33946228 150.13995361 C145.33388167 152.45271994 145.32133279 154.76538812 145.30859375 157.078125 C145.30357624 158.64973818 145.29901377 160.22135289 145.29492188 161.79296875 C145.2839186 165.63805843 145.26666736 169.4830751 145.24609375 173.328125 C146.10775146 173.30717773 146.96940918 173.28623047 147.85717773 173.26464844 C151.09444125 173.19594166 154.33132966 173.14606874 157.5690918 173.10839844 C158.96277189 173.08844505 160.35637005 173.06127181 161.74975586 173.02636719 C171.21223811 172.79549213 179.0735803 172.98459534 186.5859375 179.29296875 C187.37677734 180.26943359 187.37677734 180.26943359 188.18359375 181.265625 C189.00150391 182.23822266 189.00150391 182.23822266 189.8359375 183.23046875 C193.67435521 188.94024801 193.54268365 194.19077709 193.53662109 200.86645508 C193.54333832 201.92722763 193.55005554 202.98800018 193.55697632 204.08091736 C193.57596894 207.58654469 193.57988125 211.09198067 193.58203125 214.59765625 C193.58845852 217.03757302 193.59518683 219.47748902 193.60220337 221.91740417 C193.61417947 227.03260077 193.61788386 232.14772982 193.61669922 237.26293945 C193.61649607 243.80996457 193.6437933 250.35655543 193.67824364 256.90347767 C193.70050733 261.94359823 193.7045369 266.98361422 193.70347977 272.02377892 C193.7058367 274.43705427 193.71466538 276.85033247 193.7301445 279.26355934 C193.74979185 282.64321713 193.74397039 286.02193768 193.73193359 289.40161133 C193.74317261 290.39357513 193.75441162 291.38553894 193.76599121 292.40756226 C193.69694818 300.05612895 191.85842211 305.22157235 186.93359375 311.078125 C180.30371414 316.62872188 174.46177615 318.46658795 165.8515625 318.42578125 C164.64951172 318.42255859 163.44746094 318.41933594 162.20898438 318.41601562 C160.96310547 318.40763672 159.71722656 318.39925781 158.43359375 318.390625 C157.16837891 318.38611328 155.90316406 318.38160156 154.59960938 318.37695312 C151.48172265 318.36518751 148.36393242 318.34874772 145.24609375 318.328125 C145.27751465 319.69578003 145.27751465 319.69578003 145.30957031 321.09106445 C145.37839668 324.5260664 145.42820471 327.96031888 145.46582031 331.39575195 C145.48573862 332.87275878 145.51288382 334.34968884 145.54785156 335.82641602 C145.87691773 350.09724123 143.40273442 360.56796608 133.50390625 371.19921875 C123.84713222 380.51540116 112.07354461 382.4804515 99.1902771 382.46856689 C97.67620598 382.47302358 97.67620598 382.47302358 96.13154757 382.4775703 C92.75093866 382.48623839 89.37036524 382.48776395 85.98974609 382.48925781 C83.56501185 382.49388735 81.14027833 382.49891219 78.71554565 382.50430298 C72.12852927 382.51741651 65.54152025 382.52390702 58.954494 382.52831364 C54.83731298 382.53108076 50.7201343 382.53531899 46.60295486 382.53981781 C35.19180385 382.55200749 23.78065469 382.5623071 12.3694973 382.5656929 C11.63975918 382.56591247 10.91002106 382.56613203 10.15816966 382.56635825 C9.42673668 382.56657653 8.69530369 382.56679481 7.94170606 382.5670197 C6.45967253 382.56746316 4.977639 382.56790972 3.49560547 382.56835938 C2.39290788 382.56869152 2.39290788 382.56869152 1.26793356 382.56903037 C-10.63494827 382.57297559 -22.53776878 382.59042253 -34.44062693 382.6137189 C-46.67665154 382.63747296 -58.91264542 382.64989661 -71.14869344 382.65106082 C-78.01247905 382.65197535 -84.87618476 382.65767148 -91.73994827 382.67588043 C-98.19960207 382.69295755 -104.65914498 382.69450381 -111.11881638 382.68574142 C-113.48424434 382.68497244 -115.84968053 382.68929543 -118.21508789 382.69919968 C-135.78585468 382.76843145 -150.71642359 382.57263898 -164.50390625 370.203125 C-171.71709707 362.56261245 -174.89229525 353.20215308 -174.8515625 342.9375 C-174.85014755 342.23288635 -174.8487326 341.52827271 -174.84727478 340.80230713 C-174.84169558 338.56086916 -174.82914698 336.31953257 -174.81640625 334.078125 C-174.81138856 332.55468895 -174.80682612 331.03125132 -174.80273438 329.5078125 C-174.79173299 325.78121728 -174.77448271 322.05468104 -174.75390625 318.328125 C-175.52468506 318.34383545 -176.29546387 318.3595459 -177.08959961 318.37573242 C-180.62345881 318.43856719 -184.15719996 318.47726927 -187.69140625 318.515625 C-188.90376953 318.54076172 -190.11613281 318.56589844 -191.36523438 318.59179688 C-200.92916529 318.66955241 -209.21249822 317.66976357 -216.75390625 311.328125 C-220.41275084 306.42983441 -222.86781309 302.05685982 -222.90107727 295.84516907 C-222.90823257 294.92704941 -222.91538788 294.00892975 -222.92276001 293.06298828 C-222.92544891 292.05776123 -222.92813782 291.05253418 -222.9309082 290.0168457 C-222.9374794 288.9563652 -222.9440506 287.8958847 -222.95082092 286.80326843 C-222.97056291 283.28681367 -222.98221911 279.77040166 -222.9921875 276.25390625 C-222.99626303 275.05306082 -223.00033855 273.85221539 -223.00453758 272.6149807 C-223.02540301 266.25805203 -223.03970223 259.90114497 -223.04907227 253.54418945 C-223.06013245 246.98143873 -223.094527 240.41902746 -223.13424397 233.85639668 C-223.16040394 228.80770746 -223.16876363 223.75909916 -223.17235374 218.71034813 C-223.17722193 216.29148252 -223.18884242 213.87262057 -223.20739174 211.45382118 C-223.23176704 208.06440056 -223.23082049 204.6758586 -223.22387695 201.28637695 C-223.23668701 200.29127106 -223.24949707 199.29616516 -223.26269531 198.27090454 C-223.20831353 190.97006143 -221.6243463 185.66341365 -216.82421875 180.0859375 C-216.18226563 179.54710937 -215.5403125 179.00828125 -214.87890625 178.453125 C-214.24210937 177.89882813 -213.6053125 177.34453125 -212.94921875 176.7734375 C-208.06661862 173.55891428 -203.3478967 173.08373192 -197.60546875 173.1328125 C-196.94807709 173.1356424 -196.29068542 173.13847229 -195.6133728 173.14138794 C-193.53502392 173.15249053 -191.45712259 173.17757514 -189.37890625 173.203125 C-187.96094377 173.21316769 -186.54297446 173.22229127 -185.125 173.23046875 C-181.66782588 173.25239695 -178.21090983 173.28685682 -174.75390625 173.328125 C-174.77485352 172.38606201 -174.79580078 171.44399902 -174.81738281 170.47338867 C-174.88618114 166.92657386 -174.93600439 163.38048365 -174.97363281 159.83325195 C-174.99355936 158.30774641 -175.0207111 156.78231532 -175.05566406 155.25708008 C-175.35024611 142.05720521 -173.81017524 131.86676565 -164.94921875 121.55078125 C-157.58194865 114.091748 -147.64216049 109.27240291 -137.09887695 108.87402344 C-135.12570045 108.87464431 -133.15243793 108.89649209 -131.1796875 108.9375 C-130.12984177 108.94315979 -129.07999603 108.94881958 -127.99833679 108.95465088 C-124.68720394 108.97681286 -121.37720491 109.02697062 -118.06640625 109.078125 C-115.80405223 109.09821609 -113.54168103 109.11646225 -111.27929688 109.1328125 C-105.77045484 109.17661096 -100.26226158 109.24331672 -94.75390625 109.328125 C-94.78532715 108.08724121 -94.78532715 108.08724121 -94.81738281 106.82128906 C-94.90052244 103.0736913 -94.95256156 99.32628751 -95.00390625 95.578125 C-95.03742188 94.27617187 -95.0709375 92.97421875 -95.10546875 91.6328125 C-95.12480469 89.75722656 -95.12480469 89.75722656 -95.14453125 87.84375 C-95.17595215 86.11560059 -95.17595215 86.11560059 -95.20800781 84.35253906 C-94.63970746 80.5675365 -93.76088073 79.64217461 -90.75390625 77.328125 C-87.69134521 76.84710693 -87.69134521 76.84710693 -84.05761719 76.87402344 C-83.39379028 76.87343933 -82.72996338 76.87285522 -82.04602051 76.87225342 C-79.85956887 76.87503235 -77.67449363 76.90611172 -75.48828125 76.9375 C-73.96942896 76.94496316 -72.45056703 76.95065574 -70.93170166 76.95465088 C-66.939873 76.96990159 -62.94862928 77.00917777 -58.95703125 77.0534668 C-54.88159091 77.09443211 -50.80605577 77.11266454 -46.73046875 77.1328125 C-38.73801323 77.17567325 -30.74603257 77.24391696 -22.75390625 77.328125 C-22.7700584 74.73025794 -22.82481749 72.14302528 -22.90234375 69.546875 C-22.90290771 68.81307617 -22.90347168 68.07927734 -22.90405273 67.32324219 C-22.9402146 64.86959832 -22.9402146 64.86959832 -23.75390625 61.328125 C-26.65423219 58.94392718 -29.16356099 57.90868766 -32.66796875 56.59765625 C-37.44080327 54.63414838 -39.93965292 51.54558542 -42.75390625 47.328125 C-43.18574219 46.69648438 -43.61757812 46.06484375 -44.0625 45.4140625 C-48.393709 37.65085745 -48.08156108 26.99226186 -46.09375 18.51171875 C-42.68470077 10.02599014 -35.93423084 3.2730292 -27.75390625 -0.671875 C-18.83982058 -4.17339689 -8.71205244 -4.06276337 0 0 Z M-28.12890625 20.953125 C-30.32990518 25.52443047 -30.43183333 29.3399208 -29.75390625 34.328125 C-28.00573305 38.69855801 -24.81419949 41.9504758 -20.75390625 44.328125 C-16.45418325 45.761366 -13.39573995 45.52393867 -9.06640625 44.203125 C-4.60220644 41.67621945 -1.40361815 39.27726071 0.24609375 34.328125 C0.77368923 29.30299427 0.81601841 25.44761988 -1.50390625 20.890625 C-4.84602289 17.0843255 -7.62389574 14.69180241 -12.8046875 14.08984375 C-19.82395989 13.85950493 -23.34627265 15.66705629 -28.12890625 20.953125 Z M-78.75390625 94.328125 C-78.75390625 99.278125 -78.75390625 104.228125 -78.75390625 109.328125 C-36.51390625 109.328125 5.72609375 109.328125 49.24609375 109.328125 C49.24609375 104.378125 49.24609375 99.428125 49.24609375 94.328125 C7.00609375 94.328125 -35.23390625 94.328125 -78.75390625 94.328125 Z M-154.34765625 136.37890625 C-158.84089701 142.6070372 -158.90354334 149.83893784 -158.88761902 157.27815247 C-158.88988458 158.06097098 -158.89215013 158.84378949 -158.89448434 159.65032977 C-158.90079633 162.26405336 -158.89999678 164.87772472 -158.89916992 167.49145508 C-158.90216317 169.36933967 -158.90556608 171.24722364 -158.90934753 173.12510681 C-158.91817503 178.22023793 -158.92052513 183.31535225 -158.92116332 188.41049027 C-158.92187455 191.59562431 -158.92401025 194.78075409 -158.92666054 197.96588707 C-158.9359099 209.08313645 -158.93999595 220.20037385 -158.93920898 231.31762695 C-158.93860833 241.6717775 -158.94915872 252.02587593 -158.96495265 262.38001329 C-158.97803909 271.27701907 -158.98339241 280.17400784 -158.98275357 289.07102317 C-158.98249891 294.38147705 -158.98533285 299.6918846 -158.99593163 305.00232887 C-159.00563114 309.99852799 -159.00567906 314.99463666 -158.99841499 319.990839 C-158.99737145 321.82054273 -158.99971832 323.65025214 -159.00577545 325.47994614 C-159.01353112 327.98578493 -159.00882712 330.49131414 -159.00114441 332.99714661 C-159.00628797 333.71390039 -159.01143154 334.43065417 -159.01673096 335.16912776 C-158.95358759 344.54742948 -156.8499164 352.08274778 -150.75390625 359.328125 C-143.6894037 365.19015903 -136.4205008 365.6245049 -127.63357544 365.58882141 C-126.62939068 365.59264696 -125.62520591 365.59647251 -124.59059131 365.60041398 C-121.23368044 365.61071325 -117.87694159 365.60675762 -114.52001953 365.6027832 C-112.10997357 365.60713137 -109.699929 365.61231487 -107.28988647 365.61827087 C-101.42769132 365.63027069 -95.56553867 365.63281361 -89.7033359 365.63047061 C-84.93669827 365.6286854 -80.17007453 365.63044144 -75.40343857 365.63469505 C-74.72424664 365.63529024 -74.04505471 365.63588543 -73.34528121 365.63649866 C-71.96536152 365.63771045 -70.58544184 365.63892458 -69.20552216 365.64014103 C-56.27282584 365.65101032 -43.3401556 365.64885702 -30.40745781 365.64275619 C-18.58667313 365.63758796 -6.76597087 365.64884105 5.05479752 365.66785441 C17.2038337 365.68724537 29.35283091 365.69548658 41.50188267 365.69173115 C48.31804373 365.68982097 55.13413464 365.69228882 61.95028305 365.70644569 C68.3607039 365.71962557 74.77100113 365.71708237 81.18142319 365.70403481 C83.53198299 365.70166888 85.88255439 365.70440428 88.23310089 365.71265793 C91.44619022 365.72312536 94.65872604 365.71502424 97.87179565 365.7023468 C98.79797852 365.70972109 99.72416139 365.71709537 100.67841041 365.72469312 C108.07413848 365.66346792 114.26146092 364.2796157 120.49609375 360.203125 C128.15809625 352.19284966 129.4030982 344.09499142 129.37980652 333.25784302 C129.38207208 332.47417008 129.38433763 331.69049715 129.38667184 330.88307655 C129.39297237 328.27245897 129.39218503 325.66189384 129.39135742 323.05126953 C129.39435135 321.17323744 129.39775442 319.29520596 129.40153503 317.41717529 C129.41035477 312.32623549 129.41271228 307.2353125 129.41335082 302.14436579 C129.4140624 298.96140398 129.41619874 295.77844643 129.41884804 292.59548569 C129.42809428 281.48471557 129.43218377 270.37395743 129.43139648 259.26318359 C129.43079567 248.91639666 129.44135017 238.56966186 129.45714015 228.22288811 C129.47022626 219.33010842 129.47557994 210.43734574 129.47494107 201.5445565 C129.47468643 196.23747096 129.47751914 190.93043179 129.48811913 185.62335587 C129.49781828 180.63124735 129.49786681 175.63922936 129.49060249 170.64711761 C129.48955896 168.8190256 129.49190576 166.99092789 129.49796295 165.16284561 C129.50571866 162.65924977 129.50101462 160.15596378 129.49333191 157.65237427 C129.50104725 156.57826678 129.50104725 156.57826678 129.50891846 155.48246014 C129.45006129 146.74865498 128.00797918 139.05599696 121.60546875 132.69921875 C115.05286711 126.78763249 109.76643339 126.03285625 101.13175964 126.06069946 C100.10407685 126.05616835 99.07639406 126.05163724 98.01756936 126.04696882 C94.56920319 126.03429458 91.12099433 126.03594716 87.67260742 126.03759766 C85.20212093 126.0316143 82.73163632 126.0248092 80.26115417 126.01724243 C74.24394076 126.00139329 68.22678935 125.99513318 62.20956083 125.99401768 C57.31748489 125.99306685 52.42542185 125.98895486 47.53334999 125.98261642 C33.65835232 125.96500556 19.78338558 125.95577727 5.90837666 125.95727737 C4.78668553 125.95739724 4.78668553 125.95739724 3.64233398 125.95751953 C2.89362505 125.95760129 2.14491612 125.95768305 1.37351904 125.95776729 C-10.75848209 125.95858007 -22.89035903 125.93944402 -35.02232424 125.9112428 C-47.48430677 125.88250342 -59.94622876 125.86870309 -72.40824527 125.87043035 C-79.40272338 125.87109391 -86.39707131 125.86561686 -93.39151955 125.84407425 C-99.97019494 125.82394182 -106.54864248 125.82454695 -113.12734795 125.83910751 C-115.54121934 125.84120046 -117.95510781 125.83646592 -120.36894989 125.8243866 C-123.66583086 125.80895763 -126.96176082 125.81822776 -130.25862122 125.83364868 C-131.21242686 125.82336156 -132.1662325 125.81307443 -133.14894134 125.80247557 C-142.56813396 125.89974482 -148.44709528 129.12389833 -154.34765625 136.37890625 Z M-201.75390625 190.328125 C-206.20898412 194.78320287 -206.87322352 196.45169042 -206.88761902 202.38206482 C-206.891884 203.17968231 -206.89614899 203.9772998 -206.90054321 204.79908752 C-206.90009003 205.66517136 -206.89963684 206.53125519 -206.89916992 207.42358398 C-206.90252853 208.34272583 -206.90588715 209.26186768 -206.90934753 210.2088623 C-206.91884675 213.2473282 -206.92080005 216.28573893 -206.921875 219.32421875 C-206.925088 221.43644738 -206.92845211 223.54867578 -206.93196106 225.66090393 C-206.93794954 230.08847571 -206.93980122 234.51602797 -206.93920898 238.94360352 C-206.93910731 244.61756425 -206.95276614 250.29139998 -206.96998119 255.96533108 C-206.98109746 260.32762731 -206.98312832 264.68989328 -206.98259926 269.05220222 C-206.98377968 271.14418023 -206.98820494 273.23615902 -206.99593163 275.32812309 C-207.00572501 278.2532618 -207.00285611 281.17812843 -206.99682617 284.10327148 C-207.00244568 284.96733109 -207.00806519 285.83139069 -207.01385498 286.72163391 C-207.01097908 292.78720076 -207.01097908 292.78720076 -204.75390625 298.328125 C-197.15284438 303.47185731 -197.15284438 303.47185731 -174.75390625 301.328125 C-174.75390625 264.698125 -174.75390625 228.068125 -174.75390625 190.328125 C-183.66390625 190.328125 -192.57390625 190.328125 -201.75390625 190.328125 Z M145.24609375 190.328125 C145.24609375 226.958125 145.24609375 263.588125 145.24609375 301.328125 C167.64503188 303.47185731 167.64503188 303.47185731 175.24609375 298.328125 C177.9248805 293.95647479 177.53507785 289.12012938 177.52075195 284.15087891 C177.52586288 283.23480362 177.53097382 282.31872833 177.53623962 281.37489319 C177.55012129 278.35142453 177.5491798 275.32818421 177.546875 272.3046875 C177.55076293 270.19867875 177.5550978 268.09267078 177.55986023 265.98666382 C177.56731954 261.57344012 177.56703339 257.16029643 177.56176758 252.74707031 C177.55597577 247.09904256 177.57289853 241.45134303 177.59611225 235.80336952 C177.61086399 231.4538482 177.61171927 227.10440564 177.60860252 222.75486374 C177.60911509 220.6729098 177.61434064 218.59095139 177.62441444 216.50902176 C177.63678819 213.59385276 177.62998117 210.67931943 177.6184082 207.76416016 C177.62605194 206.90886215 177.63369568 206.05356415 177.64157104 205.17234802 C177.59482049 199.82872263 176.79450381 196.05787268 174.24609375 191.328125 C165.59482538 187.00249081 154.91850584 190.328125 145.24609375 190.328125 Z " fill="#000000" transform="translate(270.75390625,121.671875)"/>
<path d="M0 0 C0.70114746 -0.00453111 1.40229493 -0.00906223 2.12468928 -0.01373065 C4.46207499 -0.02633891 6.79922662 -0.02475662 9.13664246 -0.02310181 C10.81748757 -0.02908931 12.49832993 -0.03589537 14.1791687 -0.04345703 C18.73713833 -0.06110198 23.29503282 -0.06581179 27.8530333 -0.0670886 C30.70315405 -0.06851165 33.55325579 -0.07278417 36.40337181 -0.07808304 C46.35353683 -0.09657857 56.30364832 -0.10475428 66.25382996 -0.10317993 C75.5174246 -0.10197877 84.78078616 -0.12307742 94.04432184 -0.15466726 C102.00716138 -0.18085039 109.9699249 -0.19154637 117.93280715 -0.19026911 C122.68441224 -0.18976007 127.43581014 -0.19541156 132.18737221 -0.21662521 C136.65837557 -0.23604186 141.12897483 -0.23610875 145.59999275 -0.22159195 C147.23619428 -0.21950697 148.87242133 -0.22418615 150.50857925 -0.23631287 C160.08632487 -0.30267409 168.46675408 -0.21884389 176.14909363 6.23226929 C176.67632019 6.88324585 177.20354675 7.53422241 177.74674988 8.20492554 C178.29202332 8.85332397 178.83729675 9.50172241 179.39909363 10.16976929 C183.23751134 15.87954854 183.10583977 21.13007763 183.09977722 27.80575562 C183.10649445 28.86652817 183.11321167 29.92730072 183.12013245 31.0202179 C183.13912507 34.52584523 183.14303738 38.03128121 183.14518738 41.53695679 C183.15161465 43.97687356 183.15834295 46.41678956 183.1653595 48.85670471 C183.1773356 53.97190131 183.18103999 59.08703036 183.17985535 64.20223999 C183.1796522 70.74926511 183.20694943 77.29585597 183.24139977 83.84277821 C183.26366345 88.88289877 183.26769303 93.92291476 183.26663589 98.96307945 C183.26899283 101.37635481 183.27782151 103.78963301 183.29330063 106.20285988 C183.31294798 109.58251767 183.30712652 112.96123822 183.29508972 116.34091187 C183.30632874 117.33287567 183.31756775 118.32483948 183.32914734 119.34686279 C183.26010431 126.99542949 181.42157824 132.16087289 176.49674988 138.01742554 C169.71381447 143.69616216 163.93195567 145.55826089 155.10832214 144.99667358 C153.749655 144.91869537 152.39089454 144.84233068 151.03205872 144.76734924 C150.31542683 144.72714346 149.59879494 144.68693768 148.86044693 144.64551353 C111.88079793 140.99928361 111.88079793 140.99928361 78.61393738 152.97445679 C72.66050196 158.34029194 67.48421923 164.74202362 63.33790588 171.60612488 C61.19930737 175.05359545 60.18234001 176.16462228 56.19425964 177.26351929 C52.3700661 177.26793235 50.77551052 176.62298546 47.80924988 174.26742554 C46.42616206 171.50124991 46.69714792 169.25724554 46.71159363 166.16586304 C46.71642761 164.34828491 46.71642761 164.34828491 46.72135925 162.49398804 C46.73392761 160.5874646 46.73392761 160.5874646 46.74674988 158.64242554 C46.7512616 157.36367554 46.75577332 156.08492554 46.76042175 154.76742554 C46.77223785 151.60071261 46.78871173 148.43409198 46.80924988 145.26742554 C46.1903035 145.27408737 45.57135712 145.28074921 44.93365479 145.28761292 C38.4605176 145.35425911 31.98747876 145.39934724 25.51408386 145.43222046 C23.10193418 145.44725698 20.6898116 145.46769153 18.27775574 145.4937439 C14.79990424 145.53035286 11.32241594 145.54720383 7.84440613 145.56039429 C6.24073936 145.58362007 6.24073936 145.58362007 4.60467529 145.60731506 C-4.28220172 145.60928855 -12.21882927 144.13017716 -19.19075012 138.26742554 C-22.84959471 133.36913495 -25.30465696 128.99616036 -25.33792114 122.7844696 C-25.34507645 121.86634995 -25.35223175 120.94823029 -25.35960388 120.00228882 C-25.36363724 118.49444824 -25.36363724 118.49444824 -25.36775208 116.95614624 C-25.37432327 115.89566574 -25.38089447 114.83518524 -25.38766479 113.74256897 C-25.40740679 110.22611421 -25.41906298 106.7097022 -25.42903137 103.19320679 C-25.4331069 101.99236135 -25.43718243 100.79151592 -25.44138145 99.55428123 C-25.46224688 93.19735256 -25.4765461 86.84044551 -25.48591614 80.48348999 C-25.49697633 73.92073927 -25.53137087 67.358328 -25.57108784 60.79569721 C-25.59724782 55.747008 -25.6056075 50.6983997 -25.60919762 45.64964867 C-25.6140658 43.23078305 -25.62568629 40.81192111 -25.64423561 38.39312172 C-25.66861091 35.0037011 -25.66766436 31.61515913 -25.66072083 28.22567749 C-25.67353088 27.23057159 -25.68634094 26.2354657 -25.69953918 25.21020508 C-25.6451574 17.90936197 -24.06119018 12.60271418 -19.26106262 7.02523804 C-18.6191095 6.48640991 -17.97715637 5.94758179 -17.31575012 5.39242554 C-16.67895325 4.83812866 -16.04215637 4.28383179 -15.38606262 3.71273804 C-10.50640148 0.50014974 -5.73793336 0.01537106 0 0 Z M-8.19075012 21.26742554 C-9.19233237 23.96385501 -9.31751919 26.46083419 -9.32446289 29.32136536 C-9.32872787 30.11898285 -9.33299286 30.91660034 -9.33738708 31.73838806 C-9.3369339 32.60447189 -9.33648071 33.47055573 -9.33601379 34.36288452 C-9.33937241 35.28202637 -9.34273102 36.20116821 -9.34619141 37.14816284 C-9.35569062 40.18662873 -9.35764392 43.22503947 -9.35871887 46.26351929 C-9.36193187 48.37574791 -9.36529598 50.48797631 -9.36880493 52.60020447 C-9.37479341 57.02777625 -9.37664509 61.45532851 -9.37605286 65.88290405 C-9.37595118 71.55686478 -9.38961001 77.23070052 -9.40682507 82.90463161 C-9.41794133 87.26692785 -9.41997219 91.62919381 -9.41944313 95.99150276 C-9.42062355 98.08348077 -9.42504882 100.17545956 -9.4327755 102.26742363 C-9.44256888 105.19256234 -9.43969998 108.11742896 -9.43367004 111.04257202 C-9.43928955 111.90663162 -9.44490906 112.77069122 -9.45069885 113.66093445 C-9.44782295 119.7265013 -9.44782295 119.7265013 -7.19075012 125.26742554 C-3.52602045 128.19011266 -0.68885921 128.64327079 3.92887878 128.65219116 C5.74568649 128.66735779 5.74568649 128.66735779 7.59919739 128.68283081 C8.89828033 128.67980957 10.19736328 128.67678833 11.53581238 128.67367554 C12.88912712 128.68291316 14.24243103 128.69388531 15.59571838 128.70651245 C20.60290748 128.74943078 25.61007556 128.76055637 30.61741638 128.7727356 C34.85720231 128.78425966 39.09658918 128.80779521 43.33620834 128.84742737 C45.32315825 128.86100367 47.31020449 128.856627 49.29719543 128.85202026 C51.10454666 128.86718689 51.10454666 128.86718689 52.94841003 128.88265991 C54.54128342 128.88574158 54.54128342 128.88574158 56.16633606 128.8888855 C58.80924988 129.26742554 58.80924988 129.26742554 60.64356995 130.56808472 C62.58595934 133.399721 62.38804296 136.62849399 62.49674988 139.95492554 C62.53091003 140.65682007 62.56507019 141.3587146 62.6002655 142.08187866 C62.68254935 143.80983941 62.74758228 145.53860626 62.80924988 147.26742554 C68.04821211 142.93958717 72.82916566 138.30291557 77.57487488 133.43930054 C81.7286088 129.40175497 84.6001082 128.97602451 90.13883972 128.9961853 C91.25398705 128.98834518 91.25398705 128.98834518 92.3916626 128.98034668 C94.00565352 128.97010727 95.61967747 128.96432637 97.2336998 128.96246529 C99.78944583 128.9588042 102.34480291 128.94208455 104.90046692 128.92170715 C112.16653713 128.86627217 119.43266495 128.83561873 126.69889832 128.81112671 C131.14395984 128.79524041 135.58874594 128.76500894 140.0336647 128.72636223 C141.72648314 128.71472018 143.41935086 128.70878195 145.11220932 128.70868111 C147.48205512 128.70848877 149.85114304 128.69020207 152.22087097 128.6680603 C152.91818832 128.67263748 153.61550568 128.67721466 154.33395386 128.68193054 C158.64417123 128.61799687 161.4658231 128.0461346 164.80924988 125.26742554 C167.48803662 120.89577533 167.09823397 116.05942991 167.08390808 111.09017944 C167.08901901 110.17410416 167.09412994 109.25802887 167.09939575 108.31419373 C167.11327742 105.29072507 167.11233592 102.26748475 167.11003113 99.24398804 C167.11391906 97.13797928 167.11825393 95.03197131 167.12301636 92.92596436 C167.13047567 88.51274066 167.13018952 84.09959697 167.12492371 79.68637085 C167.1191319 74.03834309 167.13605465 68.39064356 167.15926838 62.74267006 C167.17402012 58.39314874 167.1748754 54.04370618 167.17175865 49.69416428 C167.17227122 47.61221034 167.17749676 45.53025192 167.18757057 43.4483223 C167.19994432 40.5331533 167.1931373 37.61861996 167.18156433 34.70346069 C167.18920807 33.84816269 167.19685181 32.99286469 167.20472717 32.11164856 C167.15797662 26.76802317 166.35765993 22.99717322 163.80924988 18.26742554 C160.94501945 16.83531032 158.49647102 17.13150022 155.2936554 17.12025452 C154.61689912 17.11657783 153.94014284 17.11290114 153.24287879 17.10911304 C150.96437642 17.09805801 148.68591962 17.09422932 146.40739441 17.09042358 C144.77814081 17.08416039 143.14888865 17.07751372 141.51963806 17.07051086 C137.08575 17.05308979 132.65187274 17.04254647 128.21795893 17.03430533 C125.44964948 17.02915839 122.68134341 17.02308258 119.91303635 17.0167942 C111.2568677 16.99774055 102.60070761 16.98350879 93.94452202 16.97518224 C83.94237267 16.9654028 73.94044421 16.93906567 63.93837273 16.89868134 C56.21349112 16.86855823 48.48867297 16.85371706 40.76373374 16.85040122 C36.1469105 16.84804672 31.53032318 16.83903436 26.91356277 16.81394005 C22.5715042 16.79072015 18.22983794 16.78640137 13.88773346 16.79670143 C12.29296695 16.79719836 10.69818152 16.79083172 9.10347366 16.77714539 C6.92811218 16.75951827 4.75417275 16.76648537 2.57881165 16.77967834 C0.75202724 16.77609581 0.75202724 16.77609581 -1.11166191 16.77244091 C-4.82515475 17.36941045 -5.97771461 18.27129273 -8.19075012 21.26742554 Z " fill="#000000" transform="translate(321.1907501220703,38.732574462890625)"/>
<path d="M0 0 C0.70114746 -0.00453111 1.40229493 -0.00906223 2.12468928 -0.01373065 C4.46207499 -0.02633891 6.79922662 -0.02475662 9.13664246 -0.02310181 C10.81748757 -0.02908931 12.49832993 -0.03589537 14.1791687 -0.04345703 C18.73713833 -0.06110198 23.29503282 -0.06581179 27.8530333 -0.0670886 C30.70315405 -0.06851165 33.55325579 -0.07278417 36.40337181 -0.07808304 C46.35353683 -0.09657857 56.30364832 -0.10475428 66.25382996 -0.10317993 C75.5174246 -0.10197877 84.78078616 -0.12307742 94.04432184 -0.15466726 C102.00716138 -0.18085039 109.9699249 -0.19154637 117.93280715 -0.19026911 C122.68441224 -0.18976007 127.43581014 -0.19541156 132.18737221 -0.21662521 C136.65837557 -0.23604186 141.12897483 -0.23610875 145.59999275 -0.22159195 C147.23619428 -0.21950697 148.87242133 -0.22418615 150.50857925 -0.23631287 C160.08632487 -0.30267409 168.46675408 -0.21884389 176.14909363 6.23226929 C176.67632019 6.88324585 177.20354675 7.53422241 177.74674988 8.20492554 C178.29202332 8.85332397 178.83729675 9.50172241 179.39909363 10.16976929 C183.23751134 15.87954854 183.10583977 21.13007763 183.09977722 27.80575562 C183.10649445 28.86652817 183.11321167 29.92730072 183.12013245 31.0202179 C183.13912507 34.52584523 183.14303738 38.03128121 183.14518738 41.53695679 C183.15161465 43.97687356 183.15834295 46.41678956 183.1653595 48.85670471 C183.1773356 53.97190131 183.18103999 59.08703036 183.17985535 64.20223999 C183.1796522 70.74926511 183.20694943 77.29585597 183.24139977 83.84277821 C183.26366345 88.88289877 183.26769303 93.92291476 183.26663589 98.96307945 C183.26899283 101.37635481 183.27782151 103.78963301 183.29330063 106.20285988 C183.31294798 109.58251767 183.30712652 112.96123822 183.29508972 116.34091187 C183.30632874 117.33287567 183.31756775 118.32483948 183.32914734 119.34686279 C183.26010431 126.99542949 181.42157824 132.16087289 176.49674988 138.01742554 C170.31445084 143.1933038 164.63840922 145.40099665 156.5599823 145.38095093 C155.53930161 145.3808754 154.51862091 145.38079987 153.4670105 145.38072205 C151.83237602 145.37298012 151.83237602 145.37298012 150.16471863 145.36508179 C148.4773333 145.36295937 148.4773333 145.36295937 146.75585938 145.36079407 C143.16946229 145.35520484 139.58312804 145.34265426 135.99674988 145.32992554 C133.56250599 145.32490915 131.12826112 145.32034648 128.6940155 145.31625366 C122.73240558 145.30523894 116.77083222 145.28851147 110.80924988 145.26742554 C110.83281555 146.46286987 110.83281555 146.46286987 110.8568573 147.6824646 C110.91922576 151.29404604 110.95824727 154.90551415 110.99674988 158.51742554 C111.0218866 159.77168335 111.04702332 161.02594116 111.07292175 162.31820679 C111.08742371 164.12611694 111.08742371 164.12611694 111.10221863 165.97055054 C111.1257843 167.63585815 111.1257843 167.63585815 111.14982605 169.33480835 C110.76794128 172.62312362 110.15305372 173.96182302 107.80924988 176.26742554 C104.12804315 177.28998296 101.87554358 177.74079548 98.33781433 176.17025757 C95.79149393 174.25406358 94.42718982 172.4057371 92.81202698 169.68440247 C86.80687578 159.72134526 78.88002169 150.49869683 67.80924988 146.26742554 C48.25694144 142.19074449 26.90699396 143.87358497 7.09065247 145.04502869 C-2.93668473 145.59069867 -11.2390913 144.95404773 -19.19075012 138.26742554 C-22.84959471 133.36913495 -25.30465696 128.99616036 -25.33792114 122.7844696 C-25.34507645 121.86634995 -25.35223175 120.94823029 -25.35960388 120.00228882 C-25.36363724 118.49444824 -25.36363724 118.49444824 -25.36775208 116.95614624 C-25.37432327 115.89566574 -25.38089447 114.83518524 -25.38766479 113.74256897 C-25.40740679 110.22611421 -25.41906298 106.7097022 -25.42903137 103.19320679 C-25.4331069 101.99236135 -25.43718243 100.79151592 -25.44138145 99.55428123 C-25.46224688 93.19735256 -25.4765461 86.84044551 -25.48591614 80.48348999 C-25.49697633 73.92073927 -25.53137087 67.358328 -25.57108784 60.79569721 C-25.59724782 55.747008 -25.6056075 50.6983997 -25.60919762 45.64964867 C-25.6140658 43.23078305 -25.62568629 40.81192111 -25.64423561 38.39312172 C-25.66861091 35.0037011 -25.66766436 31.61515913 -25.66072083 28.22567749 C-25.67353088 27.23057159 -25.68634094 26.2354657 -25.69953918 25.21020508 C-25.6451574 17.90936197 -24.06119018 12.60271418 -19.26106262 7.02523804 C-18.6191095 6.48640991 -17.97715637 5.94758179 -17.31575012 5.39242554 C-16.67895325 4.83812866 -16.04215637 4.28383179 -15.38606262 3.71273804 C-10.50640148 0.50014974 -5.73793336 0.01537106 0 0 Z M-8.19075012 21.26742554 C-9.19233237 23.96385501 -9.31751919 26.46083419 -9.32446289 29.32136536 C-9.32872787 30.11898285 -9.33299286 30.91660034 -9.33738708 31.73838806 C-9.3369339 32.60447189 -9.33648071 33.47055573 -9.33601379 34.36288452 C-9.33937241 35.28202637 -9.34273102 36.20116821 -9.34619141 37.14816284 C-9.35569062 40.18662873 -9.35764392 43.22503947 -9.35871887 46.26351929 C-9.36193187 48.37574791 -9.36529598 50.48797631 -9.36880493 52.60020447 C-9.37479341 57.02777625 -9.37664509 61.45532851 -9.37605286 65.88290405 C-9.37595118 71.55686478 -9.38961001 77.23070052 -9.40682507 82.90463161 C-9.41794133 87.26692785 -9.41997219 91.62919381 -9.41944313 95.99150276 C-9.42062355 98.08348077 -9.42504882 100.17545956 -9.4327755 102.26742363 C-9.44256888 105.19256234 -9.43969998 108.11742896 -9.43367004 111.04257202 C-9.43928955 111.90663162 -9.44490906 112.77069122 -9.45069885 113.66093445 C-9.44782295 119.7265013 -9.44782295 119.7265013 -7.19075012 125.26742554 C-3.27345037 128.52520721 0.38985725 128.66809566 5.2865448 128.55697632 C6.02223694 128.55271133 6.75792908 128.54844635 7.51591492 128.54405212 C9.10810623 128.53377711 10.70026645 128.51710555 12.2923336 128.49472427 C14.82030837 128.46234625 17.34731691 128.45377426 19.87548828 128.45245361 C27.06129003 128.44685704 34.24630889 128.41803843 41.43156433 128.32601929 C45.83390332 128.27134678 50.23453681 128.26098868 54.63715553 128.27816391 C56.30643609 128.27623157 57.97578728 128.25794273 59.64468956 128.22235489 C74.29999464 127.91886804 74.29999464 127.91886804 80.73014832 133.65145874 C82.12581446 135.15756716 83.49133593 136.69283055 84.80924988 138.26742554 C85.76942992 139.22662915 86.73757609 140.17805081 87.71940613 141.11508179 C88.42967957 141.84598022 89.139953 142.57687866 89.87174988 143.32992554 C91.16592792 144.66049523 92.47261816 145.97950933 93.80924988 147.26742554 C94.13924988 147.26742554 94.46924988 147.26742554 94.80924988 147.26742554 C94.84663269 146.21941772 94.8840155 145.17140991 94.92253113 144.09164429 C94.98819502 142.71270249 95.05464223 141.33379783 95.12174988 139.95492554 C95.14430847 139.26463257 95.16686707 138.5743396 95.19010925 137.86312866 C95.4604441 132.77591838 95.4604441 132.77591838 96.97492981 130.56808472 C99.57989894 128.72098231 101.4932495 128.88880601 104.67008972 128.88265991 C105.87499054 128.87254883 107.07989136 128.86243774 108.32130432 128.85202026 C109.62443573 128.8550415 110.92756714 128.85806274 112.27018738 128.86117554 C113.62156938 128.85194191 114.97294054 128.84097115 116.32429504 128.82833862 C120.61093235 128.79155814 124.89747803 128.77785214 129.18424988 128.76742554 C134.1458979 128.75533582 139.10711987 128.73371767 144.06857681 128.68742371 C146.05210638 128.67388428 148.03573196 128.67821768 150.01930237 128.68283081 C151.23050751 128.67271973 152.44171265 128.66260864 153.68962097 128.65219116 C155.28488113 128.6491095 155.28488113 128.6491095 156.91236877 128.64596558 C160.31553749 128.20126813 162.1286184 127.40527684 164.80924988 125.26742554 C167.48803662 120.89577533 167.09823397 116.05942991 167.08390808 111.09017944 C167.08901901 110.17410416 167.09412994 109.25802887 167.09939575 108.31419373 C167.11327742 105.29072507 167.11233592 102.26748475 167.11003113 99.24398804 C167.11391906 97.13797928 167.11825393 95.03197131 167.12301636 92.92596436 C167.13047567 88.51274066 167.13018952 84.09959697 167.12492371 79.68637085 C167.1191319 74.03834309 167.13605465 68.39064356 167.15926838 62.74267006 C167.17402012 58.39314874 167.1748754 54.04370618 167.17175865 49.69416428 C167.17227122 47.61221034 167.17749676 45.53025192 167.18757057 43.4483223 C167.19994432 40.5331533 167.1931373 37.61861996 167.18156433 34.70346069 C167.18920807 33.84816269 167.19685181 32.99286469 167.20472717 32.11164856 C167.15797662 26.76802317 166.35765993 22.99717322 163.80924988 18.26742554 C160.94501945 16.83531032 158.49647102 17.13150022 155.2936554 17.12025452 C154.61689912 17.11657783 153.94014284 17.11290114 153.24287879 17.10911304 C150.96437642 17.09805801 148.68591962 17.09422932 146.40739441 17.09042358 C144.77814081 17.08416039 143.14888865 17.07751372 141.51963806 17.07051086 C137.08575 17.05308979 132.65187274 17.04254647 128.21795893 17.03430533 C125.44964948 17.02915839 122.68134341 17.02308258 119.91303635 17.0167942 C111.2568677 16.99774055 102.60070761 16.98350879 93.94452202 16.97518224 C83.94237267 16.9654028 73.94044421 16.93906567 63.93837273 16.89868134 C56.21349112 16.86855823 48.48867297 16.85371706 40.76373374 16.85040122 C36.1469105 16.84804672 31.53032318 16.83903436 26.91356277 16.81394005 C22.5715042 16.79072015 18.22983794 16.78640137 13.88773346 16.79670143 C12.29296695 16.79719836 10.69818152 16.79083172 9.10347366 16.77714539 C6.92811218 16.75951827 4.75417275 16.76648537 2.57881165 16.77967834 C0.75202724 16.77609581 0.75202724 16.77609581 -1.11166191 16.77244091 C-4.82515475 17.36941045 -5.97771461 18.27129273 -8.19075012 21.26742554 Z " fill="#000000" transform="translate(33.19075012207031,6.732574462890625)"/>
<path d="M0 0 C1.27866943 -0.0112793 2.55733887 -0.02255859 3.87475586 -0.03417969 C5.28955305 -0.02640266 6.704348 -0.01821 8.11914062 -0.00964355 C9.61076542 -0.01506435 11.10238485 -0.02218677 12.59399414 -0.03088379 C16.6436169 -0.04912547 20.69283223 -0.04204633 24.74246216 -0.02936745 C28.97936099 -0.01924407 33.21622481 -0.02863128 37.453125 -0.03491211 C44.56842312 -0.04219046 51.68355521 -0.03259594 58.79882812 -0.0135498 C67.02641862 0.00821938 75.25361265 0.00116814 83.48119354 -0.02085543 C90.54373317 -0.03900413 97.6061534 -0.04157037 104.6687088 -0.03110075 C108.88752237 -0.02486287 113.10614956 -0.02403817 117.32495117 -0.0372467 C121.29119435 -0.04879699 125.25692611 -0.04079505 129.22311401 -0.01766968 C130.6791804 -0.01237811 132.1352898 -0.01390409 133.59133911 -0.02272034 C135.57780425 -0.03363977 137.56436338 -0.01752243 139.55078125 0 C141.21880798 0.00226215 141.21880798 0.00226215 142.92053223 0.00457001 C146.43659019 0.62451633 147.6167585 1.71631068 149.77539062 4.50793457 C150.29296875 7.0189209 150.29296875 7.0189209 150.30664062 9.83996582 C150.31501953 10.87838623 150.32339844 11.91680664 150.33203125 12.98669434 C150.31333984 14.08682861 150.29464844 15.18696289 150.27539062 16.32043457 C150.26185547 17.44957275 150.24832031 18.57871094 150.234375 19.74206543 C149.79385799 37.60989644 143.5393441 54.85815649 131.77539062 68.50793457 C131.21722656 69.21949707 130.6590625 69.93105957 130.08398438 70.66418457 C117.68198321 85.78478724 98.63373364 94.36740122 79.58789062 97.25793457 C54.41278206 98.90876136 33.39549881 92.34303408 14.08789062 75.82043457 C-0.34776382 62.19483843 -9.71344389 43.1072124 -10.53710938 23.27746582 C-10.58964317 21.00034684 -10.63119215 18.72294962 -10.66210938 16.44543457 C-10.6845874 15.33764648 -10.70706543 14.2298584 -10.73022461 13.08850098 C-10.72708252 12.0396875 -10.72394043 10.99087402 -10.72070312 9.91027832 C-10.72255615 8.966604 -10.72440918 8.02292969 -10.72631836 7.05065918 C-9.54524945 1.06485252 -5.54320702 0.00751762 0 0 Z M6.77539062 17.50793457 C6.77539062 35.01476562 12.33865492 48.49904236 24.40429688 61.19543457 C37.09573731 73.57324797 51.90614072 80.17172064 69.77539062 80.88293457 C89.06948344 80.05513521 104.71022114 72.45644098 117.77539062 58.50793457 C128.32633784 46.82652873 132.77539062 32.9732535 132.77539062 17.50793457 C91.19539062 17.50793457 49.61539062 17.50793457 6.77539062 17.50793457 Z " fill="#000000" transform="translate(186.224609375,374.4920654296875)"/>
<path d="M0 0 C8.34180132 4.93254339 14.68265899 11.91762108 17.24609375 21.328125 C18.26671678 32.67365541 17.3760714 42.30392425 10.24609375 51.578125 C3.79556947 58.46147667 -5.18069284 61.95028002 -14.44140625 62.578125 C-23.26199445 62.41232447 -31.07640375 58.99504762 -37.75390625 53.328125 C-45.10468855 45.57609913 -47.26129461 37.73893359 -47.17358398 27.26171875 C-46.84935709 18.35434059 -43.66627593 12.55244958 -37.6796875 6.1171875 C-27.42937735 -3.40541301 -12.82698248 -5.98171268 0 0 Z M-28.12890625 20.953125 C-30.32990518 25.52443047 -30.43183333 29.3399208 -29.75390625 34.328125 C-28.00573305 38.69855801 -24.81419949 41.9504758 -20.75390625 44.328125 C-16.45418325 45.761366 -13.39573995 45.52393867 -9.06640625 44.203125 C-4.60220644 41.67621945 -1.40361815 39.27726071 0.24609375 34.328125 C0.77368923 29.30299427 0.81601841 25.44761988 -1.50390625 20.890625 C-4.84602289 17.0843255 -7.62389574 14.69180241 -12.8046875 14.08984375 C-19.82395989 13.85950493 -23.34627265 15.66705629 -28.12890625 20.953125 Z " fill="#000000" transform="translate(350.75390625,297.671875)"/>
<path d="M0 0 C8.34180132 4.93254339 14.68265899 11.91762108 17.24609375 21.328125 C18.26671678 32.67365541 17.3760714 42.30392425 10.24609375 51.578125 C3.79556947 58.46147667 -5.18069284 61.95028002 -14.44140625 62.578125 C-23.26199445 62.41232447 -31.07640375 58.99504762 -37.75390625 53.328125 C-45.10468855 45.57609913 -47.26129461 37.73893359 -47.17358398 27.26171875 C-46.84935709 18.35434059 -43.66627593 12.55244958 -37.6796875 6.1171875 C-27.42937735 -3.40541301 -12.82698248 -5.98171268 0 0 Z M-28.12890625 20.953125 C-30.32990518 25.52443047 -30.43183333 29.3399208 -29.75390625 34.328125 C-28.00573305 38.69855801 -24.81419949 41.9504758 -20.75390625 44.328125 C-16.45418325 45.761366 -13.39573995 45.52393867 -9.06640625 44.203125 C-4.60220644 41.67621945 -1.40361815 39.27726071 0.24609375 34.328125 C0.77368923 29.30299427 0.81601841 25.44761988 -1.50390625 20.890625 C-4.84602289 17.0843255 -7.62389574 14.69180241 -12.8046875 14.08984375 C-19.82395989 13.85950493 -23.34627265 15.66705629 -28.12890625 20.953125 Z " fill="#000000" transform="translate(190.75390625,297.671875)"/>
<path d="M0 0 C47.52 0 95.04 0 144 0 C144 5.61 144 11.22 144 17 C96.48 17 48.96 17 0 17 C0 11.39 0 5.78 0 0 Z " fill="#000000" transform="translate(328,135)"/>
<path d="M0 0 C47.52 0 95.04 0 144 0 C144 5.61 144 11.22 144 17 C96.48 17 48.96 17 0 17 C0 11.39 0 5.78 0 0 Z " fill="#000000" transform="translate(40,103)"/>
<path d="M0 0 C47.52 0 95.04 0 144 0 C144 5.61 144 11.22 144 17 C96.48 17 48.96 17 0 17 C0 11.39 0 5.78 0 0 Z " fill="#000000" transform="translate(328,71)"/>
<path d="M0 0 C47.52 0 95.04 0 144 0 C144 5.61 144 11.22 144 17 C96.48 17 48.96 17 0 17 C0 11.39 0 5.78 0 0 Z " fill="#000000" transform="translate(40,39)"/>
<path d="M0 0 C36.96 0 73.92 0 112 0 C112 5.61 112 11.22 112 17 C75.04 17 38.08 17 0 17 C0 11.39 0 5.78 0 0 Z " fill="#000000" transform="translate(344,103)"/>
<path d="M0 0 C36.96 0 73.92 0 112 0 C112 5.61 112 11.22 112 17 C75.04 17 38.08 17 0 17 C0 11.39 0 5.78 0 0 Z " fill="#000000" transform="translate(56,71)"/>
</svg>
